<svg xmlns="http://www.w3.org/2000/svg" viewBox="0 0 128 128" width="128" height="128">
  <defs>
    <linearGradient id="bg" x1="0" y1="0" x2="1" y2="1">
      <stop offset="0%" stop-color="#f59e0b"/>
      <stop offset="100%" stop-color="#d97706"/>
    </linearGradient>
  </defs>
  <circle cx="64" cy="64" r="60" fill="url(#bg)"/>
  <circle cx="64" cy="64" r="40" fill="none" stroke="white" stroke-width="2" opacity="0.4"/>
  <circle cx="64" cy="64" r="25" fill="none" stroke="white" stroke-width="2" opacity="0.3"/>
  <circle cx="64" cy="24" r="5" fill="white"/>
  <circle cx="64" cy="104" r="5" fill="white"/>
  <circle cx="24" cy="64" r="5" fill="white"/>
  <circle cx="104" cy="64" r="5" fill="white"/>
  <circle cx="36" cy="36" r="4" fill="white"/>
  <circle cx="92" cy="36" r="4" fill="white"/>
  <circle cx="36" cy="92" r="4" fill="white"/>
  <circle cx="92" cy="92" r="4" fill="white"/>
  <line x1="64" y1="29" x2="64" y2="39" stroke="white" stroke-width="2"/>
  <line x1="64" y1="69" x2="64" y2="99" stroke="white" stroke-width="2"/>
  <line x1="29" y1="64" x2="39" y2="64" stroke="white" stroke-width="2"/>
  <line x1="69" y1="64" x2="99" y2="64" stroke="white" stroke-width="2"/>
  <circle cx="64" cy="64" r="8" fill="white"/>
  <circle cx="64" cy="64" r="3" fill="#f59e0b"/>
</svg>
